<?xml version="1.0" encoding="UTF-8"?>
<svg id="Layer_2" data-name="Layer 2" xmlns="http://www.w3.org/2000/svg" viewBox="0 0 2431.29 456.61">
  <g id="Layer_1-2" data-name="Layer 1">
    <g>
      <g>
        <path d="m912.65,298.11l51.08-140.07h36.14l50.11,140.07h-33.4l-9.77-29.79h-51.47l-9.67,29.79h-33.01Zm49.42-53.72h37.51l-15.82-49.52c-.65-1.82-1.16-3.43-1.51-4.84-.36-1.4-.67-3.17-.93-5.32h-.78c-.33,1.89-.67,3.58-1.03,5.08-.36,1.5-.8,3.06-1.32,4.69l-16.12,49.91Z"/>
        <path d="m1179.11,237.65c0,20.97-4.87,36.69-14.6,47.18-9.74,10.48-24.34,15.73-43.81,15.73s-33.05-5.09-42.49-15.29c-9.44-10.19-14.16-25.61-14.16-46.25v-80.97h30.57v81.46c0,11.53,2.28,20.17,6.84,25.93,4.56,5.76,11.36,8.64,20.41,8.64s15.61-2.78,20.07-8.35c4.46-5.57,6.69-13.92,6.69-25.05v-82.63h30.47v79.6Z"/>
        <path d="m1324.64,298.11h-34.67l-18.95-34.87c-3.06-5.66-6.12-9.93-9.18-12.8-3.06-2.86-6.58-4.46-10.55-4.79h-8.99v52.45h-30.47v-140.07h49.33c16.73,0,29.33,3.29,37.8,9.87,8.46,6.58,12.7,16.47,12.7,29.69,0,9.31-2.72,17.34-8.16,24.08-5.44,6.74-12.88,11.74-22.32,14.99v.39c4.04,1.3,7.83,3.96,11.38,7.96,3.55,4,6.56,8.25,9.03,12.75l23.05,40.34Zm-82.34-117.01v41.32h14.26c6.9,0,12.45-2.08,16.65-6.25,4.2-4.17,6.3-9.34,6.3-15.53s-1.86-11.31-5.57-14.6c-3.71-3.29-9.31-4.93-16.8-4.93h-14.85Z"/>
        <path d="m1406.49,300.56c-19.99,0-36.29-6.53-48.89-19.58-12.6-13.05-18.9-30.07-18.9-51.03,0-22.14,6.4-40.05,19.19-53.72,12.8-13.67,29.77-20.51,50.94-20.51,19.93,0,36.04,6.54,48.35,19.63,12.31,13.09,18.46,30.34,18.46,51.77s-6.38,39.84-19.14,53.28c-12.76,13.45-29.43,20.17-50.01,20.17Zm.59-26.47c11.26,0,20.15-3.97,26.66-11.92,6.51-7.94,9.77-19.05,9.77-33.31s-3.17-26.27-9.52-34.48c-6.35-8.2-15.06-12.31-26.13-12.31s-20.25,4.22-26.96,12.65c-6.71,8.43-10.06,19.62-10.06,33.55s3.34,25.3,10.01,33.5c6.67,8.2,15.42,12.31,26.23,12.31Z"/>
        <path d="m1613.95,298.11h-34.67l-18.95-34.87c-3.06-5.66-6.12-9.93-9.18-12.8-3.06-2.86-6.58-4.46-10.55-4.79h-8.99v52.45h-30.47v-140.07h49.33c16.73,0,29.33,3.29,37.8,9.87,8.46,6.58,12.7,16.47,12.7,29.69,0,9.31-2.72,17.34-8.16,24.08-5.44,6.74-12.88,11.74-22.32,14.99v.39c4.04,1.3,7.83,3.96,11.38,7.96,3.55,4,6.56,8.25,9.03,12.75l23.05,40.34Zm-82.34-117.01v41.32h14.26c6.9,0,12.45-2.08,16.65-6.25,4.2-4.17,6.3-9.34,6.3-15.53s-1.86-11.31-5.57-14.6c-3.71-3.29-9.31-4.93-16.8-4.93h-14.85Z"/>
        <path d="m1733.12,158.05l-45.61,90.15v49.91h-30.57v-49.42l-44.44-90.64h34.87l23.15,53.04c.2.52.57,1.69,1.12,3.52.55,1.82,1.28,4.36,2.2,7.62h.29c.39-2.28.86-4.3,1.42-6.06.55-1.76,1.09-3.32,1.61-4.69l23.64-53.43h32.33Z"/>
        <path d="m1806.47,298.11v-140.07h48.84c24.87,0,43.53,5.68,55.97,17.04,12.44,11.36,18.66,28.44,18.66,51.23s-6.81,39.23-20.41,52.26c-13.61,13.02-31.71,19.53-54.31,19.53h-48.74Zm30.47-115.16v90.35h15.92c14,0,24.97-4.15,32.92-12.45,7.94-8.3,11.92-19.68,11.92-34.14,0-13.67-3.91-24.39-11.72-32.13-7.81-7.75-18.85-11.62-33.11-11.62h-15.92Z"/>
        <path d="m2068.24,298.11h-34.67l-18.95-34.87c-3.06-5.66-6.12-9.93-9.18-12.8-3.06-2.86-6.58-4.46-10.55-4.79h-8.99v52.45h-30.47v-140.07h49.33c16.73,0,29.33,3.29,37.8,9.87,8.46,6.58,12.7,16.47,12.7,29.69,0,9.31-2.72,17.34-8.16,24.08-5.44,6.74-12.88,11.74-22.32,14.99v.39c4.04,1.3,7.83,3.96,11.38,7.96,3.55,4,6.56,8.25,9.03,12.75l23.05,40.34Zm-82.34-117.01v41.32h14.26c6.9,0,12.45-2.08,16.65-6.25,4.2-4.17,6.3-9.34,6.3-15.53s-1.86-11.31-5.57-14.6c-3.71-3.29-9.31-4.93-16.8-4.93h-14.85Z"/>
        <path d="m2071.66,298.11l51.08-140.07h36.14l50.11,140.07h-33.4l-9.77-29.79h-51.47l-9.67,29.79h-33.01Zm49.42-53.72h37.51l-15.82-49.52c-.65-1.82-1.16-3.43-1.51-4.84-.36-1.4-.67-3.17-.93-5.32h-.78c-.33,1.89-.67,3.58-1.03,5.08-.36,1.5-.8,3.06-1.32,4.69l-16.12,49.91Z"/>
        <path d="m2308.81,182.96h-49.72v35.36h45.71v24.81h-45.71v54.99h-30.47v-140.07h80.19v24.91Z"/>
        <path d="m2431.29,182.96h-40.05v115.16h-30.57v-115.16h-39.85v-24.91h110.47v24.91Z"/>
      </g>
      <g>
        <path d="m361.54,456.61V48.53H0v361.53h252.58m-143.62-108.96v-143.61h143.62v143.61H108.96Z"/>
        <path d="m660.07,46.55h-252.58v361.53h361.54V0m-108.96,155.51v143.61h-143.62v-143.61h143.62Z"/>
      </g>
    </g>
  </g>
</svg>