<?xml version="1.0" encoding="UTF-8"?>
<svg id="Layer_2" data-name="Layer 2" xmlns="http://www.w3.org/2000/svg" viewBox="0 0 2479.33 456.61">
  <defs>
    <style>
      .cls-1 {
        fill: #00c8ff;
      }

      .cls-2 {
        fill: #8b5cf6;
      }

      .cls-3 {
        fill: #fff;
      }
    </style>
  </defs>
  <g id="Layer_1-2" data-name="Layer 1">
    <g>
      <g>
        <path class="cls-3" d="m914.9,301.1l53.48-149.2h39.85l52.23,149.2h-35.38l-10.3-29.86h-54.73l-10.09,29.86h-35.06Zm52.85-57.33h39.02l-15.92-52.13c-.56-1.87-1.08-3.59-1.56-5.15-.49-1.56-.97-3.38-1.46-5.46h-.83c-.42,1.73-.87,3.43-1.35,5.1-.49,1.67-1.04,3.47-1.67,5.41l-16.23,52.23Z"/>
        <path class="cls-3" d="m1070.66,271.86l28.3-14.78c3.19,6.45,7.37,11.2,12.54,14.25,5.17,3.05,10.84,4.58,17.01,4.58,7.56,0,13.18-1.44,16.86-4.32,3.68-2.88,5.51-6.85,5.51-11.91s-2-9.29-5.98-12.28c-3.99-2.98-10.28-5.27-18.88-6.87-16.51-3.19-28.63-8.31-36.36-15.35-7.74-7.04-11.6-16.77-11.6-29.18,0-14.15,4.99-25.46,14.98-33.92,9.99-8.46,23.17-12.69,39.54-12.69,11.17,0,20.95,2.25,29.34,6.76,8.39,4.51,14.98,10.96,19.77,19.35l-27.68,14.25c-2.78-4.72-5.93-8.13-9.47-10.25-3.54-2.12-8.12-3.17-13.73-3.17-6.52,0-11.53,1.42-15.03,4.27-3.5,2.84-5.25,6.42-5.25,10.72s1.73,7.89,5.2,10.56c3.47,2.67,9.95,4.84,19.46,6.5,15.81,2.84,27.76,8.1,35.84,15.76,8.08,7.67,12.12,18.05,12.12,31.16,0,14.84-4.75,26.62-14.25,35.32-9.5,8.71-23.06,13.06-40.68,13.06-12.76,0-24.26-2.79-34.49-8.38-10.23-5.58-17.91-13.4-23.05-23.46Z"/>
        <path class="cls-3" d="m1328.07,286.12c-7.14,5.2-15.38,9.43-24.71,12.69-9.33,3.26-18.75,4.89-28.25,4.89-24.69,0-44.01-6.64-57.95-19.92-13.94-13.28-20.91-31.58-20.91-54.88s7-42.55,21.02-57.33c14.01-14.77,31.66-22.16,52.96-22.16,14.98,0,27.36,2.84,37.14,8.53,9.78,5.69,17.13,13.21,22.06,22.58l-27.16,13.53c-3.47-5.76-7.7-9.88-12.69-12.38s-10.54-3.75-16.65-3.75c-11.79,0-21.56,4.25-29.29,12.75-7.74,8.5-11.6,20.45-11.6,35.84s3.83,27.78,11.5,36.1c7.66,8.32,17.74,12.49,30.23,12.49,3.75,0,7.44-.43,11.08-1.3,3.64-.87,6.85-2.17,9.62-3.9v-24.24h-29.86v-27.88h63.47v68.36Z"/>
        <path class="cls-3" d="m1342.01,301.1l53.48-149.2h39.85l52.23,149.2h-35.38l-10.3-29.86h-54.73l-10.09,29.86h-35.06Zm52.85-57.33h39.02l-15.92-52.13c-.56-1.87-1.08-3.59-1.56-5.15-.49-1.56-.97-3.38-1.46-5.46h-.83c-.42,1.73-.87,3.43-1.35,5.1-.49,1.67-1.04,3.47-1.67,5.41l-16.23,52.23Z"/>
        <path class="cls-3" d="m1626.47,301.1h-37.77l-22.16-40.37c-2.98-5.48-5.84-9.36-8.58-11.65-2.74-2.29-6.09-3.43-10.04-3.43h-9.05v55.46h-33.61v-149.2h53.27c18.52,0,32.2,3.85,41.05,11.55,8.84,7.7,13.27,17.97,13.27,30.8,0,9.36-2.78,17.88-8.32,25.54-5.55,7.67-13.32,12.95-23.31,15.87v.42c3.81,1.53,7.39,4.08,10.72,7.65,3.33,3.57,6.83,8.55,10.51,14.93l24.04,42.45Zm-87.61-123.61v42.35h14.57c7.7,0,13.63-2.03,17.79-6.09,4.16-4.06,6.24-9.45,6.24-16.18s-1.94-11.41-5.83-14.88c-3.89-3.47-9.75-5.2-17.58-5.2h-15.19Z"/>
        <path class="cls-3" d="m1644.16,301.1v-149.2h52.85c26.5,0,46.37,6.05,59.62,18.16,13.25,12.1,19.87,30.29,19.87,54.57s-7.23,41.79-21.69,55.66c-14.46,13.87-33.73,20.81-57.8,20.81h-52.85Zm33.61-121.32v93.43h16.65c14.57,0,25.99-4.32,34.28-12.95,8.29-8.64,12.43-20.38,12.43-35.22,0-14.08-4.11-25.14-12.33-33.19-8.22-8.04-19.75-12.07-34.59-12.07h-16.44Z"/>
        <path class="cls-3" d="m1849.13,301.1v-149.2h52.85c26.5,0,46.37,6.05,59.62,18.16,13.25,12.1,19.87,30.29,19.87,54.57s-7.23,41.79-21.69,55.66c-14.46,13.87-33.73,20.81-57.8,20.81h-52.85Zm33.61-121.32v93.43h16.65c14.57,0,25.99-4.32,34.28-12.95,8.29-8.64,12.43-20.38,12.43-35.22,0-14.08-4.11-25.14-12.33-33.19-8.22-8.04-19.75-12.07-34.59-12.07h-16.44Z"/>
        <path class="cls-3" d="m2125.78,240.13c0,19.01-5.31,34.35-15.92,46.04-10.61,11.69-26.19,17.53-46.72,17.53s-35.01-5.74-45.31-17.22c-10.3-11.48-15.45-26.51-15.45-45.1v-89.48h33.71v88.23c0,11.17,2.6,19.65,7.8,25.44,5.2,5.79,12.03,8.69,20.5,8.69s14.95-2.79,20.08-8.38c5.13-5.58,7.7-13.75,7.7-24.5v-89.48h33.61v88.23Z"/>
        <path class="cls-3" d="m2245.64,301.1h-89.48v-149.2h86.04v27.88h-52.44v32.46h48.8v27.68h-48.8v33.29h55.87v27.88Z"/>
        <path class="cls-3" d="m2356.35,301.1h-88.85v-149.2h33.61v120.9h55.25v28.3Z"/>
        <path class="cls-3" d="m2366.86,271.86l28.3-14.78c3.19,6.45,7.37,11.2,12.54,14.25,5.17,3.05,10.84,4.58,17.01,4.58,7.56,0,13.18-1.44,16.86-4.32,3.68-2.88,5.51-6.85,5.51-11.91s-2-9.29-5.98-12.28c-3.99-2.98-10.28-5.27-18.88-6.87-16.51-3.19-28.63-8.31-36.36-15.35-7.74-7.04-11.6-16.77-11.6-29.18,0-14.15,4.99-25.46,14.98-33.92,9.99-8.46,23.17-12.69,39.54-12.69,11.17,0,20.95,2.25,29.34,6.76,8.39,4.51,14.98,10.96,19.77,19.35l-27.68,14.25c-2.78-4.72-5.93-8.13-9.47-10.25-3.54-2.12-8.12-3.17-13.73-3.17-6.52,0-11.53,1.42-15.03,4.27-3.5,2.84-5.25,6.42-5.25,10.72s1.73,7.89,5.2,10.56c3.47,2.67,9.95,4.84,19.46,6.5,15.81,2.84,27.76,8.1,35.84,15.76,8.08,7.67,12.12,18.05,12.12,31.16,0,14.84-4.75,26.62-14.25,35.32-9.5,8.71-23.06,13.06-40.68,13.06-12.76,0-24.26-2.79-34.49-8.38-10.23-5.58-17.91-13.4-23.05-23.46Z"/>
      </g>
      <path class="cls-1" d="m361.54,456.61V48.53H0v361.53h252.58m-143.62-108.96v-143.61h143.62v143.61H108.96Z"/>
      <path class="cls-2" d="m660.07,46.55h-252.58v361.53h361.54V0m-108.96,155.51v143.61h-143.62v-143.61h143.62Z"/>
    </g>
  </g>
</svg>