<?xml version="1.0" encoding="UTF-8"?>
<svg id="Layer_2" data-name="Layer 2" xmlns="http://www.w3.org/2000/svg" viewBox="0 0 233.54 239.12">
  <g id="Layer_1-2" data-name="Layer 1">
    <g>
      <path d="m141.55,79.66h-23.54c11.25,18.69,22.29,37.03,33.6,55.83-3.1,0-5.66.13-8.18-.08-.72-.06-1.54-1.02-2-1.76-7.82-12.86-15.59-25.74-23.37-38.62-.41-.68-.85-1.35-1.57-2.5-12.95,21.52-25.74,42.75-38.61,64.13,12.85,13.36,25.66,26.67,38.12,39.63,11.59-11.11,23.07-22.11,34.66-33.23,2.05,3.39,4.32,7.14,6.59,10.89.79,1.31,1.59,2.61,2.35,3.94,2.4,4.18,2.3,2.76-.71,6.12-1.93,2.15-3.87,4.28-5.87,6.5-1.97-1.93-3.45-3.37-5.36-5.24,1.5-1.31,2.99-2.41,4.19-3.76.45-.51.59-1.74.3-2.38-.71-1.57-1.76-2.99-2.66-4.45-2.54,2.52-4.91,4.88-7.13,7.1,5.01,4.98,10.11,10.05,15.54,15.44,2.92-3.3,6.12-6.9,9.61-10.83,1.02,1.54,1.52,2.23,1.95,2.96,3.27,5.55,6.45,11.14,9.81,16.63,1.03,1.69.75,2.88-.02,4.61-1.59,3.57-4.01,4.4-7.75,4.27-9.25-.3-18.52-.32-27.77,0-3.81.13-6.25-1.25-8.39-4.4,1.54-1.39,3.13-2.82,4.92-4.43,1.4,2.63,4.11,2.04,6.62,2.04,7.41.01,14.81,0,22.22,0,1.04,0,2.08,0,3.62,0-2.08-3.58-3.95-6.8-5.99-10.32-1.17,1.1-2.19,2.05-3.46,3.24,1.88,1.55,3.64,3.01,5.97,4.93-4.52,0-8.4.06-12.27-.06-.65-.02-1.35-.79-1.9-1.34-5.42-5.39-10.82-10.81-16.22-16.22-.5-.5-1.04-.97-1.57-1.46-2.63,2.71-5.18,5.34-7.91,8.14.86.91,1.88,2.01,3.12,3.32-1.64,1.52-3.25,3.01-4.92,4.55-.99-.91-2.06-1.88-3.4-3.11-2.37,2.68-4.69,5.31-7.1,8.04-2.89-3.06-5.3-5.62-7.84-8.31-1.53,1.32-2.65,2.29-3.99,3.45-1.39-1.66-2.71-3.24-4.17-4.99.7-.76,1.71-1.87,2.66-2.92-2.72-2.59-5.37-5.12-8.5-8.1-1.36,1.49-3.07,3.47-4.9,5.34-4.05,4.14-8.12,8.28-12.28,12.3-.77.74-2.03,1.29-3.09,1.34-3.43.17-6.87.06-11.07.06,2.26-1.91,3.99-3.37,5.9-4.99-1.14-1.05-2.16-1.99-3.33-3.08-1.97,3.37-3.79,6.48-5.8,9.91.89.1,1.55.23,2.2.23,8.29.02,16.58,0,24.88.06,2.08.01,4.08.06,5.3-2.53,1.63,1.91,3.01,3.53,4.51,5.3-1.7,2.18-3.55,4.11-7.33,4-10.38-.31-20.77-.15-31.15-.05-1.85.02-2.71-.72-3.84-2.12-2.6-3.2-2.02-5.81.08-9,3.47-5.3,6.5-10.89,9.98-16.8,3.43,3.8,6.64,7.35,9.72,10.76,5.67-5.67,10.77-10.76,16.06-16.06-.61-.65-1.45-1.58-2.34-2.47-6.2-6.21-12.34-12.48-18.66-18.57-1.75-1.69-1.99-2.86-.69-5.01,12.2-20.08,24.27-40.23,36.38-60.37,3.02-5.02,6.03-10.06,9.24-15.43h-23.3c.03.3-.04.6.08.75,3.08,3.66,1.23,6.79-.76,10.19-17.86,30.57-35.63,61.19-53.42,91.8-2.17,3.73-4.3,7.47-6.13,11.57,2.58-1.52,5.16-3.04,8.21-4.84-.3,5.85-.58,11.24-.86,16.64l.41.18c8.61-14.34,17.22-28.69,26.02-43.36,1.77,2.19,3.36,4.15,5.25,6.48-2.16,3.64-4.82,8.11-7.48,12.58-4.77,8.02-9.51,16.06-14.34,24.05-.8,1.33-.98,2.43-.14,3.76.64,1.02,1.08,2.16,1.68,3.2,2.51,4.41,2.21,8.02-1.14,11.97-.91,1.07-2.02,1.98-3.46,2.69.21-1.15.48-2.28.62-3.44.47-3.98-1.53-6.52-5.49-7.06-4.57-.62-10.81,2.59-12.66,6.82-.77,1.77-.88,3.82-1.37,6.11-.34.1-1.15.33-2.07.6.32,3.67,2.68,6.1,5.06,8.65-6.64-.48-13.23-6.57-14.62-13.52h4.35c-1.11-2.03-2.05-3.73-2.98-5.42.25-.16.33-.26.38-.24q4.78,1.17,6.15-3.58c.5-1.75,1.03-3.49,1.66-5.66-4.58,1.65-8.49,3.67-11.69,6.68-.98.93-.72,3.17-1.08,5.05-.1,0-.72,0-1.31-.13-2.56-.51-3.3.13-2.58,2.69.6,2.15,1.57,4.19,2.35,6.22-8.23-2.05-12.82-11.9-8.95-20.07.78,1.32,1.47,2.49,2.48,4.18,2.46-2.87,4.88-5.33,6.8-8.14.72-1.06.27-2.91.36-4.4.05-.83-.2-1.91.23-2.46,6.79-8.72,9.66-18.6,8.87-29.72,2.73,2.26,3.67,5.19,5.64,17.4,2.66-4.57,5.17-8.82,7.62-13.11,4.19-7.34,8.08-14.86,12.59-21.99,3.41-5.39,4.31-10.92,3.32-17.05-.82-5.06-.7-5.07,4.43-7.76.56,2.2,1.11,4.33,1.78,6.95.84-1.4,1.53-2.5,2.17-3.62,2.86-5.04,5.82-10.02,8.51-15.15,2.23-4.26.9-8.53-.36-13.08-5.78,4.33-11.23,8.42-16.9,12.67-1.23-1.59-2.33-3.03-3.59-4.67,2.78-2.04,5.43-3.97,8.05-5.92,3.03-2.26,6.01-4.59,9.08-6.81,1.05-.76,1.15-1.46.67-2.63-2.19-5.32-2.24-5.41-7.94-3.88-2,.54-3.95,1.31-6.13,2.04-.95-1.53-1.92-3.07-3-4.8,3.92-2.28,8.14-3.23,12.39-3.92,6.07-.99,6.08-.9,8.61,4.72.42.94.84,1.88,1.51,3.37,3.97-4.44,7.68-8.58,11.82-13.2h-42.11c1.44,2.38,2.79,4.61,4.15,6.84,3.03,4.94,6.04,9.89,9.13,14.79.79,1.25.92,2.1-.5,2.95-1.3.78-2.5,1.73-4.11,2.86-7.92-12.82-15.75-25.5-23.95-38.77,1.44,0,2.34,0,3.24,0,19.48,0,38.96-.04,58.45.02,1.84,0,3.12-.48,4.35-1.89,6.2-7.09,12.5-14.09,18.77-21.11.53-.59,1.08-1.17,1.89-2.05,1.85,2.03,3.6,3.94,5.45,5.96-6.43,7.3-12.72,14.44-19.46,22.09,10.22-2.09,14.8-10.01,20.8-16.73,5.93,6.61,10.57,14.69,20.45,16.23-14.32-16.19-28.63-32.39-43.14-48.8,1.99-1.79,3.93-3.53,6.02-5.42,2.95,3.35,5.75,6.55,8.58,9.73,12.03,13.53,24.05,27.08,36.16,40.54.72.8,2.18,1.33,3.3,1.33,19.16.09,38.32.08,57.48.09,1.35,0,2.7,0,4.73,0-8.12,13.16-15.95,25.85-23.93,38.79-1.88-1.33-3.62-2.57-5.6-3.97,4.76-7.81,9.46-15.53,14.34-23.54h-42.14c4.04,4.56,7.77,8.77,11.82,13.35,1.26-2.76,2.22-5.04,3.35-7.22.33-.63,1.21-1.44,1.8-1.41,5.98.29,11.74,1.56,17.43,4.23-1.05,1.71-2,3.26-2.88,4.68-3.35-.83-6.53-1.59-9.69-2.41-1.57-.41-2.51,0-3.2,1.58-2.34,5.27-2.65,4.02,1.79,7.46,4.7,3.64,9.55,7.08,14.57,10.79-1.17,1.56-2.26,3.01-3.54,4.72-5.64-4.23-11.15-8.35-16.89-12.65-1.44,4.09-2.42,8.32-.68,12.07,3.14,6.75,7.05,13.13,10.97,20.26.67-2.9,1.17-5.07,1.79-7.73,1.75,1.21,3.3,2.15,4.67,3.31.39.33.4,1.29.34,1.94-.12,1.2-.49,2.36-.64,3.56-.64,5.21-.23,10.08,2.62,14.85,6.76,11.33,13.12,22.9,19.65,34.36.35.61.77,1.17,1.6,2.41-.18-6.83,1.34-12.48,5.09-18.03.17,3.36.18,6.21.47,9.03.75,7.47,3.58,14.16,8.11,20.11.97,1.27,1.14,2.41.84,3.99-.26,1.37-.16,3.22.59,4.29,1.83,2.6,4.13,4.86,6.5,7.55.92-1.53,1.61-2.67,2.3-3.82,4.82,6.08.58,15.84-8.9,20.11.8-1.85,1.61-3.47,2.2-5.17,1.25-3.56.54-4.41-3.13-3.88-.22.03-.46-.03-1.08-.08,2.04-4.65-1.52-6.12-4.49-7.86-2.32-1.36-4.75-2.54-7.13-3.8-.17.15-.33.29-.5.44.89,2.97,1.73,5.97,2.74,8.9.15.43,1.14.86,1.7.81,1.17-.11,2.3-.54,3.86-.95-1.05,1.92-1.96,3.56-3.1,5.64,1.58.11,2.86.2,4.15.29-.37,5.93-6.96,12.25-13.81,13.36,1.59-2.63,3.26-5.41,5.13-8.51-1.52-.43-2.32-.66-3.11-.89.5-6.97-3.94-11.56-11.18-12.69-5.68-.88-8.57,2.08-7.86,7.8.1.79.25,1.57.39,2.42-3.64-1.42-7.55-8.1-6.4-11.39.7-2,2.16-3.74,3.32-5.57,1.11-1.75.94-3.23-.16-5.07-9.19-15.22-18.29-30.5-27.34-45.8-.9-1.52-1.95-1.88-3.64-2.05-4.13-.42-7.11.98-9.84,4.12-3.05,3.5-6.69,6.49-10.21,9.83-.76-.67-1.82-1.61-2.89-2.55.17.23.34.46.51.69-4.7,4.15-9.4,8.3-14.24,12.58,2.12,2.25,3.8,4.05,5.46,5.81-3.34,5.13-6.25,6.67-10.9.26,1.73-1.82,3.49-3.67,5.71-6.01-4.24-3.9-8.44-7.76-12.86-11.82,2.03-2.17,3.7-3.95,5.71-6.1,2.34,2.57,4.55,5,6.52,7.17,2.96-2.83,5.68-5.42,8.61-8.22-2.64-2.75-5.27-5.55-7.95-8.3-5.56-5.71-11.13-11.41-16.71-17.09-.83-.85-1.49-1.52-.67-2.86,5.58-9.13,11.08-18.31,16.62-27.46.07-.12.25-.18.64-.44,1.12,1.81,2.26,3.6,3.36,5.41,4.38,7.22,8.71,14.48,13.16,21.66.92,1.49,1.01,2.46-.38,3.67-3.52,3.06-6.95,6.23-10.62,9.54-1.07-1.12-2.7-2.83-4.43-4.65,2.43-2.6,4.67-4.99,7-7.47-2.73-4.51-5.38-8.89-8.27-13.68-2.89,4.75-5.59,9.18-8.37,13.73,8.26,8.6,16.44,17.12,24.58,25.6,1.18-1.29,2.3-2.51,3.82-4.17-2.12-1.8-4.68-3.96-7.24-6.12.17-.25.34-.51.51-.76.49-.08.98-.24,1.47-.24,8.86-.01,17.71.05,26.57-.05,1.74-.02,2.57.69,3.39,2.06,10.48,17.55,21,35.07,31.52,52.59.31.52.67,1,1.09,1.61v-16.24c2.58,1.51,5.1,2.98,7.62,4.46.13-.11.25-.22.38-.33-1.83-3.23-3.63-6.47-5.49-9.68-17.32-29.86-34.66-59.71-51.99-89.55-1.17-2.02-2.24-4.11-3.59-6-1.54-2.16-1.78-4.15-.19-6.35.44-.61.6-1.42.96-2.34Zm10.31,6.46c-.22.04-.45.07-.67.11-.13,3.68,2.66,6.3,4.14,9.36,1.53,3.17,3.4,6.16,5.36,9.65.61-2.31,1.15-3.99,1.48-5.71.11-.59-.1-1.44-.48-1.9-3.23-3.87-6.54-7.68-9.82-11.51Zm-69.98-.1c-.22.03-.44.06-.66.09-3.32,3.9-6.65,7.78-9.95,11.7-.27.32-.48.9-.39,1.27.45,1.82,1.01,3.61,1.67,5.92,3.29-5.85,6.34-11.2,9.28-16.62.33-.62.05-1.57.05-2.37Zm-60.31,111.18c-2.56,2.48-5.59,4.28-5.1,8.42,3.89-1.4,5.18-4.29,5.1-8.42Zm195.25,8.56c-.27-3.9-1.46-5.73-5.34-8.33.1,3.8,1.37,6.84,5.34,8.33Z"/>
      <path d="m182.89,120.7c3.54-4.7,6.96-9.23,10.64-14.11.78,1.53,1.33,2.66,1.94,3.76.85,1.53.54,2.79-.5,4.17-2.36,3.12-4.57,6.36-6.98,9.74,4.28,3,8.2,5.78,12.17,8.49.35.24,1.02.04,1.53-.02.22-.03.41-.25.61-.37q6.56-4.01,6.56-11.73c0-6.44,0-12.88,0-19.31,0-.61-.07-1.23-.14-2.33-2.18,2.34-4.14,4.31-5.91,6.43-.37.44-.31,1.51-.07,2.15,2.28,6.04,3.11,12.31,2.88,18.72-.03.84-.76,1.88-1.48,2.38-.46.31-1.64,0-2.24-.41-3.25-2.21-6.43-4.53-9.76-6.91,1.2-1.66,2.26-3.13,3.42-4.74,1.16.77,2.2,1.46,3.62,2.39-.29-6.89-3.07-12.44-6.82-17.69,1.07-1.66,2.1-3.26,3.31-5.15,1.31,1.49,2.44,2.79,3.73,4.27,4.93-5.22,9.77-10.33,14.98-15.85.08,1.24.17,1.98.17,2.73.02,13.76,0,27.52.08,41.28,0,1.63-.47,2.68-1.84,3.57-2.23,1.44-5.12,2.63-6.27,4.73-1.11,2.03-.35,5.07-.43,7.66-.27,8.18-2.1,16.06-4.81,24.43-4.99-8.73-9.74-17.03-14.68-25.67,2.36-1.57,4.62-3.18,7.02-4.58.44-.26,1.46.22,2.09.58,1.03.59,1.96,1.37,3.3,2.33-1.61,1.29-3,2.41-4.57,3.67,1.47,2.61,2.92,5.17,4.36,7.73.23,0,.46,0,.68,0,.28-2.7.44-5.42.88-8.1.59-3.57-.64-5.76-3.79-7.78-8.33-5.33-16.37-11.1-24.53-16.71-.39-.27-.76-.57-1.39-1.05,1.53-2.54,3.03-5.04,4.64-7.73,1.9,1.34,3.58,2.53,5.33,3.77-.4.91-.75,1.69-1.2,2.7,1.13.83,2.25,1.66,3.46,2.55Z"/>
      <path d="m139.74,50.31c.71-3.29,1.34-6.51,2.13-9.69.15-.62.84-1.28,1.45-1.58,3.4-1.69,4.67-3.73,4.47-7.49-.19-3.57-1.7-6.91-4.68-10.25-.55.32-1.12.66-1.7,1-2.68-2.4-5.32-4.75-8.08-7.22.29-.64.57-1.23.99-2.14-2.03-.46-3.87-.87-5.96-1.34,1.61-5.2,4.81-8.95,9.64-11.6.91,1.81,1.76,3.5,2.72,5.41,2.43-2,3.58.14,4.68,1.41,1.81,2.1,5.32,2.97,5.31,6.96,7.09,5.15,15.29,7.08,24.3,5.36.48,14.14-18.18,30.48-35.26,31.17Zm11.15-7.44c6.41-.87,17.8-10.78,18.95-20.11-.88.42-1.74.95-2.25,1.71-2.13,3.2-3.74,6.85-6.32,9.6-3.26,3.47-7.27,6.22-10.38,8.79Z"/>
      <path d="m90.4,4.28c.6.4,1.12.75,1.82,1.22.94-1.8,1.82-3.49,2.85-5.45,4.93,2.4,7.94,6.37,9.78,11.58-2.06.42-3.97.82-5.88,1.21.21.22.42.45.63.67-.42.93-.62,2.09-1.29,2.76-2.11,2.09-4.4,4-6.71,6.06-.51-.38-1-.73-1.54-1.13-.24.23-.56.4-.69.66-1.34,2.87-3.09,5.65-3.87,8.67-1.05,4.09.61,6.63,4.41,8.57.59.3,1.19,1.02,1.35,1.65.75,3.1,1.35,6.24,2.01,9.37-13.16,2.43-34.17-15.62-35.38-30.34,4.35-.28,8.81-.07,13.02-.97,3.6-.77,6.96-2.75,10.35-4.36.57-.27.74-1.41,1.08-2.15.18-.4.23-.93.52-1.2,2.48-2.28,5-4.52,7.56-6.81Zm-6.75,38.96c-.19-.15-.36-.33-.57-.44-8.05-4.17-14.22-10.11-17.71-18.64-.29-.7-1.42-1.06-2.17-1.58l-.46.67c3.44,10.33,10.75,16.69,20.91,19.98Z"/>
      <path d="m53.94,118.21c-.53-.99-.9-1.68-1.41-2.64,1.64-1.2,3.3-2.41,5.23-3.82,1.6,2.59,3.13,5.06,4.77,7.71-8.6,5.94-17.04,11.77-25.81,17.83,3.39,2.09,6.51,4.01,9.82,6.06-4.83,8.41-9.6,16.72-14.36,25.03-.29,0-.58-.01-.87-.02-1.22-5.44-2.72-10.83-3.58-16.32-.67-4.26-.52-8.65-.78-12.98-.09-1.53.5-2.5,1.79-3.37,5.38-3.65,10.69-7.41,16.34-11.35-3.17-4.55-6.26-8.99-9.64-13.84-.68,3.02-1.24,5.56-1.95,8.74,1.68-1.06,2.8-1.76,4.07-2.57,1.13,1.5,2.24,2.96,3.51,4.64-4.44,3.17-8.78,6.28-13.46,9.62-.75-12.87.92-24.64,9.86-34.78,1.06,1.59,2.07,2.98,2.93,4.45.22.37.16,1.18-.12,1.52-1.46,1.81-.86,3.55.21,5.12,3.09,4.5,6.29,8.91,9.6,13.57,1.31-.88,2.48-1.66,3.85-2.59Zm-21.41,23.28c.42,4.35.77,7.96,1.11,11.57.23,0,.46.02.7.03,1.41-2.56,2.82-5.12,4.32-7.82-1.95-1.2-3.69-2.27-6.12-3.77Z"/>
      <path d="m140.43,192.93c1.76,1.54,3.32,2.91,5.13,4.49-10.02,9.69-19.71,19.05-28.95,27.98-9.34-8.97-19.07-18.31-28.95-27.8,1.82-1.73,3.33-3.16,4.62-4.39,8.08,7.79,16.15,15.59,24.22,23.36,7.92-7.83,15.9-15.71,23.93-23.65Z"/>
      <path d="m139.25,22.53c-5.4,6.1-10.6,11.99-15.99,18.08-1.67-1.88-3.21-3.5-4.6-5.25-.3-.38-.27-1.44.05-1.8,4.75-5.45,9.58-10.83,14.55-16.42,1.99,1.79,3.88,3.5,5.99,5.4Z"/>
      <path d="m98.19,173.45c-1.74-1.92-3.23-3.57-4.94-5.45,5.38-5.63,10.94-11.45,16.59-17.36,1.77,1.77,3.38,3.4,5.18,5.2-5.58,5.83-11.1,11.61-16.83,17.61Z"/>
      <path d="m96.73,161.75c-2.88-2.8-5.57-5.43-8.48-8.26,3.05-5.05,6.1-10.1,9.34-15.47,1.84,1.77,3.5,3.25,4.98,4.88.3.33.18,1.35-.1,1.86-.99,1.84-2.03,3.67-3.25,5.35-1.15,1.59-1.23,2.83.48,4,.73.5,1.4,1.08,2.32,1.79-1.95,2.15-3.6,3.96-5.3,5.83Z"/>
      <path d="m76.59,172.66c1.92,1.83,3.53,3.36,5.17,4.92-.53,1-.97,1.83-1.66,3.14,1.68,1.33,3.43,2.72,5.48,4.34-2.11,1.82-3.72,3.21-5.34,4.6-2.36-2.32-5.03-4.85-7.57-7.5-.4-.42-.56-1.54-.3-2.06,1.24-2.42,2.66-4.75,4.21-7.45Z"/>
      <path d="m82.03,9.71c-.79-.88-1.41-1.56-2.27-2.51,2.13-1.87,4.13-3.63,6.36-5.59.78.84,1.41,1.53,2.24,2.43-2.09,1.87-4.07,3.65-6.32,5.67Z"/>
      <path d="m144.75,4.14c.85-.97,1.48-1.68,2.21-2.5,2.21,1.91,4.18,3.62,6.32,5.48-.87.96-1.54,1.69-2.29,2.53-2.13-1.88-4.1-3.62-6.23-5.5Z"/>
    </g>
  </g>
</svg>