<?xml version="1.0" encoding="UTF-8"?>
<svg id="Layer_2" data-name="Layer 2" xmlns="http://www.w3.org/2000/svg" viewBox="0 0 170.26 166.8">
  <defs>
    <style>
      .cls-1 {
        fill: #fff;
      }
    </style>
  </defs>
  <g id="Layer_1-2" data-name="Layer 1">
    <g>
      <path class="cls-1" d="m78.91,49.96c-.24.17-.68.39-1.01.71-8.68,8.53-17.34,17.08-26.01,25.63-.3.29-.61.58-.87.9-.44.53-.81.49-1.29.01-2.09-2.09-4.21-4.15-6.32-6.23-11.08-10.91-22.12-21.86-33.25-32.71-3.15-3.07-4.95-6.69-5.74-10.96-.92-4.97-2.02-9.91-3.04-14.87C.95,10.33.47,8.21.09,6.08-.58,2.31,2.54-.57,6.39.18c6.91,1.34,13.82,2.7,20.74,3.97,2.72.5,5.39,1.13,7.7,2.7,1.35.92,2.64,1.98,3.81,3.12,12.29,12.07,24.55,24.16,36.8,36.26,1.13,1.12,2.18,2.32,3.47,3.72Z"/>
      <g>
        <path class="cls-1" d="m170.26,5.76c-.16.83-.38,2.12-.65,3.39-1.25,6.04-2.52,12.07-3.75,18.11-.6,2.92-1.33,5.81-3.2,8.17-1.42,1.8-3.09,3.41-4.73,5.02-12.71,12.53-25.45,25.04-38.17,37.57-14.53,14.31-29.05,28.62-43.57,42.94-2.26,2.22-4.5,4.46-6.71,6.73-.54.55-.83.52-1.36,0-8.63-8.77-17.27-17.52-25.92-26.28-.4-.41-.82-.81-1.21-1.23-.32-.33-.36-.63.02-1,8.84-8.67,17.67-17.34,26.49-26.03,20.8-20.5,41.59-41.02,62.39-61.53,1.93-1.91,3.77-3.92,6.16-5.32,2.15-1.26,4.51-1.76,6.9-2.23,3.2-.63,6.41-1.24,9.62-1.84,3.88-.73,7.75-1.48,11.64-2.14,3.33-.56,6.08,1.85,6.07,5.67Z"/>
        <path class="cls-1" d="m1.28,153.71c-.06-1.62.6-2.87,1.66-3.92,5.83-5.76,11.66-11.5,17.5-17.24.75-.73.98-.83.43-2.05-2.76-6.15-5.4-12.35-8.09-18.52-1.24-2.84-.86-4.93,1.34-7.13,1.4-1.41,2.89-2.74,4.25-4.19,2.58-2.75,6.16-2.36,8.49.11,3.22,3.4,6.53,6.72,9.82,10.05,10.24,10.38,20.48,20.75,30.73,31.11,1.23,1.24,2.05,2.62,2,4.43-.03,1.31-.43,2.48-1.34,3.42-1.76,1.79-3.52,3.58-5.35,5.31-1.77,1.66-3.87,1.89-6.05.97-2.82-1.19-5.59-2.48-8.37-3.74-3.71-1.67-7.43-3.35-11.13-5.04-.54-.25-.89-.05-1.25.3-3.86,3.8-7.73,7.6-11.58,11.4-2.07,2.04-4.1,4.12-6.18,6.14-2.2,2.15-5.42,2.27-7.63.15-2.74-2.62-5.36-5.37-7.99-8.1-.92-.96-1.33-2.18-1.25-3.45Z"/>
      </g>
      <path class="cls-1" d="m156.02,166.7c-1.63.08-2.88-.62-3.96-1.69-4.43-4.38-8.86-8.76-13.3-13.13-1.47-1.45-2.97-2.88-4.44-4.33-.43-.42-.83-.48-1.4-.22-6.2,2.83-12.41,5.64-18.62,8.45-3.01,1.36-5.05.97-7.4-1.37-1.32-1.31-2.59-2.68-3.97-3.92-2.73-2.45-2.67-6-.07-8.59,9.68-9.68,19.26-19.45,28.87-29.2,3.91-3.97,7.81-7.96,11.72-11.93,1.99-2.02,4.13-2.55,6.38-1.53.61.27,1.18.69,1.66,1.15,1.54,1.46,3.04,2.95,4.53,4.46,2.17,2.22,2.54,4.26,1.32,7.07-2.73,6.3-5.45,12.6-8.21,18.89-.28.64-.17,1,.32,1.48,5.96,5.85,11.93,11.69,17.81,17.6,2.27,2.28,2.24,5.23.04,7.57-2.49,2.65-5.08,5.21-7.67,7.76-1,.99-2.22,1.56-3.63,1.44Z"/>
      <path class="cls-1" d="m91.46,118.25c1.47-1.49,2.88-2.96,4.33-4.38,7.6-7.49,15.21-14.98,22.82-22.47q1.33-1.31,2.66,0c2.64,2.58,5.26,5.18,7.92,7.73.48.46.3.74-.05,1.09-1.95,1.97-3.9,3.95-5.84,5.92-7.03,7.14-14.07,14.28-21.1,21.41-.7.71-.69.7-1.41-.02-2.97-2.95-5.95-5.89-8.93-8.83-.14-.14-.27-.3-.4-.44Z"/>
    </g>
  </g>
</svg>